<svg width="47" height="46" viewBox="0 0 47 46" fill="none" xmlns="http://www.w3.org/2000/svg">
<rect x="0.5" width="46" height="46" rx="23" fill="#FDCED1"/>
<circle cx="23.5" cy="23" r="12" stroke="#F73541" stroke-width="2"/>
<path d="M24.8125 16.7246C25.2004 16.7246 25.5724 16.879 25.8467 17.1533C26.121 17.4276 26.2754 17.7996 26.2754 18.1875V18.4746H28.3125C28.4683 18.4746 28.6174 18.5373 28.7275 18.6475C28.8377 18.7576 28.9004 18.9067 28.9004 19.0625C28.9004 19.2183 28.8377 19.3674 28.7275 19.4775C28.6174 19.5877 28.4683 19.6504 28.3125 19.6504H28.0254V27.375C28.0254 27.6468 27.9168 27.9074 27.7246 28.0996C27.5324 28.2918 27.2718 28.4004 27 28.4004H20C19.7282 28.4004 19.4676 28.2918 19.2754 28.0996C19.0832 27.9074 18.9746 27.6468 18.9746 27.375V19.6504H18.6875C18.5317 19.6504 18.3826 19.5877 18.2725 19.4775C18.1623 19.3674 18.0996 19.2183 18.0996 19.0625L18.1113 18.9473C18.1339 18.8344 18.1898 18.7301 18.2725 18.6475C18.3826 18.5373 18.5317 18.4746 18.6875 18.4746H20.7246V18.1875C20.7246 17.7996 20.879 17.4276 21.1533 17.1533C21.4276 16.879 21.7996 16.7246 22.1875 16.7246H24.8125ZM20.1504 27.2246H26.8496V19.6504H20.1504V27.2246ZM22.1875 21.0996C22.3433 21.0996 22.4924 21.1623 22.6025 21.2725C22.7127 21.3826 22.7754 21.5317 22.7754 21.6875V25.1875C22.7754 25.3433 22.7127 25.4924 22.6025 25.6025C22.4924 25.7127 22.3433 25.7754 22.1875 25.7754C22.0317 25.7754 21.8826 25.7127 21.7725 25.6025C21.6623 25.4924 21.5996 25.3433 21.5996 25.1875V21.6875C21.5996 21.5317 21.6623 21.3826 21.7725 21.2725C21.8826 21.1623 22.0317 21.0996 22.1875 21.0996ZM24.8125 21.0996C24.9683 21.0996 25.1174 21.1623 25.2275 21.2725C25.3377 21.3826 25.4004 21.5317 25.4004 21.6875V25.1875C25.4004 25.3433 25.3377 25.4924 25.2275 25.6025C25.1174 25.7127 24.9683 25.7754 24.8125 25.7754C24.6567 25.7754 24.5076 25.7127 24.3975 25.6025C24.2873 25.4924 24.2246 25.3433 24.2246 25.1875V21.6875C24.2246 21.5317 24.2873 21.3826 24.3975 21.2725C24.5076 21.1623 24.6567 21.0996 24.8125 21.0996ZM22.1309 17.9053C22.0757 17.9163 22.0248 17.944 21.9844 17.9844C21.9305 18.0383 21.9004 18.1113 21.9004 18.1875V18.4746H25.0996V18.1875C25.0996 18.1112 25.0695 18.0383 25.0156 17.9844C24.9617 17.9305 24.8887 17.9004 24.8125 17.9004H22.1875L22.1309 17.9053Z" fill="#F73541" stroke="#F73541" stroke-width="0.3"/>
</svg>
