<svg width="24" height="24" viewBox="0 0 24 24" fill="none" xmlns="http://www.w3.org/2000/svg">
<path fill-rule="evenodd" clip-rule="evenodd" d="M22.2803 5.46967C22.5732 5.76256 22.5732 6.23744 22.2803 6.53033L13.2803 15.5303C12.9874 15.8232 12.5126 15.8232 12.2197 15.5303L9 12.3107L2.78033 18.5303C2.48744 18.8232 2.01256 18.8232 1.71967 18.5303C1.42678 18.2374 1.42678 17.7626 1.71967 17.4697L8.46967 10.7197C8.76256 10.4268 9.23744 10.4268 9.53033 10.7197L12.75 13.9393L21.2197 5.46967C21.5126 5.17678 21.9874 5.17678 22.2803 5.46967Z" fill="#6B7271"/>
<path fill-rule="evenodd" clip-rule="evenodd" d="M15 6C15 5.58579 15.3358 5.25 15.75 5.25H21.75C22.1642 5.25 22.5 5.58579 22.5 6V12C22.5 12.4142 22.1642 12.75 21.75 12.75C21.3358 12.75 21 12.4142 21 12V6.75H15.75C15.3358 6.75 15 6.41421 15 6Z" fill="#6B7271"/>
</svg>
