<svg width="24" height="24" viewBox="0 0 24 24" fill="none" xmlns="http://www.w3.org/2000/svg">
<path d="M20.9484 3.75667C20.9377 3.57319 20.8599 3.40003 20.73 3.27007C20.6 3.1401 20.4268 3.06239 20.2434 3.05167C13.1062 2.63261 7.3893 4.78136 4.9518 8.81261C4.1069 10.1916 3.69055 11.7904 3.75555 13.4064C3.80899 14.8989 4.24399 16.4064 5.04837 17.8923L3.2193 19.7204C3.07857 19.8612 2.99951 20.052 2.99951 20.251C2.99951 20.4501 3.07857 20.6409 3.2193 20.7817C3.36003 20.9224 3.55091 21.0015 3.74993 21.0015C3.94895 21.0015 4.13982 20.9224 4.28055 20.7817L6.10868 18.9526C7.59368 19.756 9.10212 20.191 10.5937 20.2445C10.6981 20.2482 10.8021 20.2501 10.9059 20.2501C12.4169 20.2541 13.8993 19.838 15.1874 19.0482C19.2187 16.6107 21.3684 10.8948 20.9484 3.75667ZM14.414 17.7657C12.2812 19.0576 9.75649 19.0782 7.22243 17.8379L15.5315 9.5298C15.6012 9.46011 15.6565 9.37739 15.6942 9.28634C15.7319 9.1953 15.7513 9.09772 15.7513 8.99917C15.7513 8.90062 15.7319 8.80304 15.6942 8.712C15.6565 8.62095 15.6012 8.53823 15.5315 8.46855C15.4618 8.39886 15.3791 8.34359 15.288 8.30588C15.197 8.26816 15.0994 8.24875 15.0009 8.24875C14.9023 8.24875 14.8047 8.26816 14.7137 8.30588C14.6226 8.34359 14.5399 8.39886 14.4702 8.46855L6.16212 16.7814C4.92555 14.2501 4.94337 11.7189 6.2343 9.5898C8.30524 6.17073 13.2281 4.29855 19.4821 4.52167C19.7062 10.771 17.8331 15.6948 14.414 17.7657Z" fill="#6B7271"/>
</svg>
