<svg width="24" height="24" viewBox="0 0 24 24" fill="none" xmlns="http://www.w3.org/2000/svg">
<path d="M20.0307 17.031L17.0307 20.031C16.89 20.1718 16.6991 20.2508 16.5001 20.2508C16.3011 20.2508 16.1102 20.1718 15.9695 20.031C15.8287 19.8903 15.7497 19.6994 15.7497 19.5004C15.7497 19.3014 15.8287 19.1105 15.9695 18.9698L17.6898 17.2504H4.5001C4.30119 17.2504 4.11042 17.1714 3.96977 17.0307C3.82912 16.8901 3.7501 16.6993 3.7501 16.5004C3.7501 16.3015 3.82912 16.1107 3.96977 15.9701C4.11042 15.8294 4.30119 15.7504 4.5001 15.7504H17.6898L15.9695 14.031C15.8287 13.8903 15.7497 13.6994 15.7497 13.5004C15.7497 13.3014 15.8287 13.1105 15.9695 12.9698C16.1102 12.8291 16.3011 12.75 16.5001 12.75C16.6991 12.75 16.89 12.8291 17.0307 12.9698L20.0307 15.9698C20.1005 16.0394 20.1558 16.1222 20.1935 16.2132C20.2313 16.3043 20.2507 16.4019 20.2507 16.5004C20.2507 16.599 20.2313 16.6966 20.1935 16.7876C20.1558 16.8787 20.1005 16.9614 20.0307 17.031ZM6.96948 11.031C7.11021 11.1718 7.30108 11.2508 7.5001 11.2508C7.69912 11.2508 7.89 11.1718 8.03073 11.031C8.17146 10.8903 8.25052 10.6994 8.25052 10.5004C8.25052 10.3014 8.17146 10.1105 8.03073 9.96979L6.31041 8.25042H19.5001C19.699 8.25042 19.8898 8.1714 20.0304 8.03075C20.1711 7.89009 20.2501 7.69933 20.2501 7.50042C20.2501 7.3015 20.1711 7.11074 20.0304 6.97009C19.8898 6.82943 19.699 6.75042 19.5001 6.75042H6.31041L8.03073 5.03104C8.17146 4.89031 8.25052 4.69944 8.25052 4.50042C8.25052 4.30139 8.17146 4.11052 8.03073 3.96979C7.89 3.82906 7.69912 3.75 7.5001 3.75C7.30108 3.75 7.11021 3.82906 6.96948 3.96979L3.96948 6.96979C3.89974 7.03945 3.84443 7.12216 3.80668 7.21321C3.76894 7.30426 3.74951 7.40186 3.74951 7.50042C3.74951 7.59898 3.76894 7.69657 3.80668 7.78762C3.84443 7.87867 3.89974 7.96139 3.96948 8.03104L6.96948 11.031Z" fill="#6B7271"/>
</svg>
